<svg width="123" height="57" viewBox="0 0 123 57" fill="none" xmlns="http://www.w3.org/2000/svg">
<path d="M4.44141 40.668C4.55078 41.457 4.76562 42.0469 5.08594 42.4375C5.67188 43.1484 6.67578 43.5039 8.09766 43.5039C8.94922 43.5039 9.64062 43.4102 10.1719 43.2227C11.1797 42.8633 11.6836 42.1953 11.6836 41.2188C11.6836 40.6484 11.4336 40.207 10.9336 39.8945C10.4336 39.5898 9.64844 39.3203 8.57812 39.0859L6.75 38.6758C4.95312 38.2695 3.71094 37.8281 3.02344 37.3516C1.85938 36.5547 1.27734 35.3086 1.27734 33.6133C1.27734 32.0664 1.83984 30.7812 2.96484 29.7578C4.08984 28.7344 5.74219 28.2227 7.92188 28.2227C9.74219 28.2227 11.293 28.707 12.5742 29.6758C13.8633 30.6367 14.5391 32.0352 14.6016 33.8711H11.1328C11.0703 32.832 10.6172 32.0938 9.77344 31.6562C9.21094 31.3672 8.51172 31.2227 7.67578 31.2227C6.74609 31.2227 6.00391 31.4102 5.44922 31.7852C4.89453 32.1602 4.61719 32.6836 4.61719 33.3555C4.61719 33.9727 4.89062 34.4336 5.4375 34.7383C5.78906 34.9414 6.53906 35.1797 7.6875 35.4531L10.6641 36.168C11.9688 36.4805 12.9531 36.8984 13.6172 37.4219C14.6484 38.2344 15.1641 39.4102 15.1641 40.9492C15.1641 42.5273 14.5586 43.8398 13.3477 44.8867C12.1445 45.9258 10.4414 46.4453 8.23828 46.4453C5.98828 46.4453 4.21875 45.9336 2.92969 44.9102C1.64062 43.8789 0.996094 42.4648 0.996094 40.668H4.44141ZM23.7586 39.4727H28.1414L25.9852 32.6758L23.7586 39.4727ZM23.9813 28.7266H28.0594L34.1766 46H30.2625L29.1492 42.4492H22.7859L21.5906 46H17.8172L23.9813 28.7266ZM49.0289 28.7266H54.2203V46H50.857V34.3164C50.857 33.9805 50.8609 33.5117 50.8688 32.9102C50.8766 32.3008 50.8805 31.832 50.8805 31.5039L47.6109 46H44.107L40.8609 31.5039C40.8609 31.832 40.8648 32.3008 40.8727 32.9102C40.8805 33.5117 40.8844 33.9805 40.8844 34.3164V46H37.5211V28.7266H42.7711L45.9117 42.3086L49.0289 28.7266ZM58.7719 28.7266H62.4398V39.3438C62.4398 40.5312 62.5805 41.3984 62.8617 41.9453C63.2992 42.9141 64.2523 43.3984 65.7211 43.3984C67.182 43.3984 68.1312 42.9141 68.5687 41.9453C68.85 41.3984 68.9906 40.5312 68.9906 39.3438V28.7266H72.6586V39.3438C72.6586 41.1797 72.3734 42.6094 71.8031 43.6328C70.7406 45.5078 68.7133 46.4453 65.7211 46.4453C62.7289 46.4453 60.6977 45.5078 59.6273 43.6328C59.057 42.6094 58.7719 41.1797 58.7719 39.3438V28.7266ZM90.0891 31.7852H80.9484V35.4531H89.3391V38.4531H80.9484V42.8945H90.5109V46H77.4211V28.7266H90.0891V31.7852ZM94.5234 28.7266H98.1328V42.8945H106.688V46H94.5234V28.7266ZM111.692 38.7246H119.09V46H111.692V38.7246Z" fill="#FAFBFF"/>
</svg>
